G04*
G04 #@! TF.GenerationSoftware,Altium Limited,Altium Designer,18.1.7 (191)*
G04*
G04 Layer_Physical_Order=2*
G04 Layer_Color=16711680*
%FSLAX25Y25*%
%MOIN*%
G70*
G01*
G75*
%ADD13C,0.01000*%
%ADD20C,0.06299*%
%ADD21C,0.05512*%
%ADD22R,0.05906X0.05906*%
%ADD23C,0.05906*%
G36*
X200000Y100394D02*
X199606Y100000D01*
X199213Y100394D01*
X100394D01*
Y200000D01*
X100557Y200394D01*
X200000D01*
Y100394D01*
D02*
G37*
%LPC*%
G36*
X110500Y183921D02*
Y180500D01*
X113921D01*
X113851Y181032D01*
X113453Y181993D01*
X112819Y182819D01*
X111993Y183453D01*
X111032Y183851D01*
X110500Y183921D01*
D02*
G37*
G36*
X109500D02*
X108968Y183851D01*
X108007Y183453D01*
X107181Y182819D01*
X106547Y181993D01*
X106149Y181032D01*
X106079Y180500D01*
X109500D01*
Y183921D01*
D02*
G37*
G36*
X113921Y179500D02*
X110500D01*
Y176079D01*
X111032Y176149D01*
X111993Y176547D01*
X112819Y177181D01*
X113453Y178007D01*
X113851Y178968D01*
X113921Y179500D01*
D02*
G37*
G36*
X109500D02*
X106079D01*
X106149Y178968D01*
X106547Y178007D01*
X107181Y177181D01*
X108007Y176547D01*
X108968Y176149D01*
X109500Y176079D01*
Y179500D01*
D02*
G37*
G36*
X110500Y173921D02*
Y170500D01*
X113921D01*
X113851Y171032D01*
X113453Y171993D01*
X112819Y172819D01*
X111993Y173453D01*
X111032Y173851D01*
X110500Y173921D01*
D02*
G37*
G36*
X109500D02*
X108968Y173851D01*
X108007Y173453D01*
X107181Y172819D01*
X106547Y171993D01*
X106149Y171032D01*
X106079Y170500D01*
X109500D01*
Y173921D01*
D02*
G37*
G36*
X180000Y173788D02*
X179019Y173659D01*
X178106Y173281D01*
X177321Y172679D01*
X176719Y171894D01*
X176341Y170981D01*
X176212Y170000D01*
X176341Y169019D01*
X176492Y168655D01*
X155823Y147986D01*
X126457D01*
X125871Y147870D01*
X125375Y147538D01*
X111790Y133953D01*
X106047D01*
Y126047D01*
X113953D01*
Y131790D01*
X127090Y144927D01*
X156457D01*
X157042Y145044D01*
X157538Y145375D01*
X178655Y166492D01*
X179019Y166341D01*
X180000Y166212D01*
X180981Y166341D01*
X181894Y166719D01*
X182679Y167321D01*
X183281Y168106D01*
X183659Y169019D01*
X183788Y170000D01*
X183659Y170981D01*
X183281Y171894D01*
X182679Y172679D01*
X181894Y173281D01*
X180981Y173659D01*
X180000Y173788D01*
D02*
G37*
G36*
X113921Y169500D02*
X110500D01*
Y166079D01*
X111032Y166149D01*
X111993Y166547D01*
X112819Y167181D01*
X113453Y168007D01*
X113851Y168968D01*
X113921Y169500D01*
D02*
G37*
G36*
X109500D02*
X106079D01*
X106149Y168968D01*
X106547Y168007D01*
X107181Y167181D01*
X108007Y166547D01*
X108968Y166149D01*
X109500Y166079D01*
Y169500D01*
D02*
G37*
G36*
X110000Y163987D02*
X108968Y163851D01*
X108007Y163453D01*
X107181Y162819D01*
X106547Y161993D01*
X106149Y161032D01*
X106013Y160000D01*
X106149Y158968D01*
X106547Y158007D01*
X107181Y157181D01*
X108007Y156547D01*
X108968Y156149D01*
X110000Y156013D01*
X111032Y156149D01*
X111993Y156547D01*
X112819Y157181D01*
X113453Y158007D01*
X113851Y158968D01*
X113987Y160000D01*
X113851Y161032D01*
X113453Y161993D01*
X112819Y162819D01*
X111993Y163453D01*
X111032Y163851D01*
X110000Y163987D01*
D02*
G37*
G36*
Y153987D02*
X108968Y153851D01*
X108007Y153453D01*
X107181Y152819D01*
X106547Y151993D01*
X106149Y151032D01*
X106013Y150000D01*
X106149Y148968D01*
X106547Y148007D01*
X107181Y147181D01*
X108007Y146547D01*
X108968Y146149D01*
X110000Y146013D01*
X111032Y146149D01*
X111993Y146547D01*
X112819Y147181D01*
X113453Y148007D01*
X113851Y148968D01*
X113987Y150000D01*
X113851Y151032D01*
X113453Y151993D01*
X112819Y152819D01*
X111993Y153453D01*
X111032Y153851D01*
X110000Y153987D01*
D02*
G37*
G36*
X180000Y143788D02*
X179019Y143659D01*
X178106Y143281D01*
X177321Y142679D01*
X176719Y141894D01*
X176341Y140981D01*
X176212Y140000D01*
X176341Y139020D01*
X176719Y138106D01*
X177321Y137321D01*
X178106Y136719D01*
X179019Y136341D01*
X180000Y136212D01*
X180981Y136341D01*
X181894Y136719D01*
X182679Y137321D01*
X183281Y138106D01*
X183659Y139020D01*
X183788Y140000D01*
X183659Y140981D01*
X183281Y141894D01*
X182679Y142679D01*
X181894Y143281D01*
X180981Y143659D01*
X180000Y143788D01*
D02*
G37*
G36*
X110000Y143987D02*
X108968Y143851D01*
X108007Y143453D01*
X107181Y142819D01*
X106547Y141993D01*
X106149Y141032D01*
X106013Y140000D01*
X106149Y138968D01*
X106547Y138007D01*
X107181Y137181D01*
X108007Y136547D01*
X108968Y136149D01*
X110000Y136013D01*
X111032Y136149D01*
X111993Y136547D01*
X112819Y137181D01*
X113453Y138007D01*
X113851Y138968D01*
X113987Y140000D01*
X113851Y141032D01*
X113453Y141993D01*
X112819Y142819D01*
X111993Y143453D01*
X111032Y143851D01*
X110000Y143987D01*
D02*
G37*
G36*
X145500Y134120D02*
Y130500D01*
X149120D01*
X149043Y131083D01*
X148625Y132093D01*
X147959Y132959D01*
X147093Y133625D01*
X146083Y134043D01*
X145500Y134120D01*
D02*
G37*
G36*
X144500D02*
X143917Y134043D01*
X142907Y133625D01*
X142041Y132959D01*
X141375Y132093D01*
X140957Y131083D01*
X140880Y130500D01*
X144500D01*
Y134120D01*
D02*
G37*
G36*
X149120Y129500D02*
X145500D01*
Y125880D01*
X146083Y125957D01*
X147093Y126375D01*
X147959Y127041D01*
X148625Y127907D01*
X149043Y128917D01*
X149120Y129500D01*
D02*
G37*
G36*
X144500D02*
X140880D01*
X140957Y128917D01*
X141375Y127907D01*
X142041Y127041D01*
X142907Y126375D01*
X143917Y125957D01*
X144500Y125880D01*
Y129500D01*
D02*
G37*
G36*
X155000Y134185D02*
X153917Y134043D01*
X152907Y133625D01*
X152041Y132959D01*
X151375Y132093D01*
X150957Y131083D01*
X150815Y130000D01*
X150957Y128917D01*
X151375Y127907D01*
X152041Y127041D01*
X152907Y126375D01*
X153917Y125957D01*
X155000Y125815D01*
X156083Y125957D01*
X157093Y126375D01*
X157959Y127041D01*
X158625Y127907D01*
X159043Y128917D01*
X159185Y130000D01*
X159043Y131083D01*
X158625Y132093D01*
X157959Y132959D01*
X157093Y133625D01*
X156083Y134043D01*
X155000Y134185D01*
D02*
G37*
%LPD*%
D13*
X156457Y146457D02*
X180000Y170000D01*
X126457Y146457D02*
X156457D01*
X110000Y130000D02*
X126457Y146457D01*
D20*
X155000Y130000D02*
D03*
X145000D02*
D03*
D21*
X180000Y170000D02*
D03*
Y140000D02*
D03*
D22*
X110000Y130000D02*
D03*
D23*
Y140000D02*
D03*
Y150000D02*
D03*
Y160000D02*
D03*
Y170000D02*
D03*
Y180000D02*
D03*
M02*
